<?xml version="1.0" encoding="iso-8859-1"?>
<!-- Generator: Adobe Illustrator 21.0.0, SVG Export Plug-In . SVG Version: 6.00 Build 0)  -->
<svg version="1.1" id="Capa_1" xmlns="http://www.w3.org/2000/svg" xmlns:xlink="http://www.w3.org/1999/xlink" x="0px" y="0px"
	 viewBox="0 0 274.78 70.21" style="enable-background:new 0 0 274.78 70.21;" xml:space="preserve">
<g>
	
		<path style="fill-rule:evenodd;clip-rule:evenodd;fill:#004B8F;stroke:#004B8F;stroke-width:0.5669;stroke-miterlimit:22.9256;" d="
		M48.5,5.49c16.36,0,29.61,13.37,29.61,29.86c0,16.49-13.26,29.86-29.61,29.86c-16.36,0-29.61-13.37-29.61-29.86
		C18.89,18.86,32.15,5.49,48.5,5.49L48.5,5.49z"/>
	<path d="M24.39,52.73c-0.01,0-0.01,0-0.03,0c0.47,0.64,0.97,1.26,1.49,1.86c0,0,0.01,0,0.01,0C25.35,53.99,24.85,53.37,24.39,52.73
		L24.39,52.73z"/>
	<path style="fill:#097EC2;" d="M24.86,53.36c0.17,0.22,0.34,0.44,0.52,0.65c0.08-0.01,0.16-0.01,0.24,0
		c0.09,0.01,0.17,0.01,0.26,0.02c0.02,0,0.04,0,0.06,0.01c1.07,0.09,2.14,0.2,3.21,0.29c0.5,0.04,1.03,0.07,1.54,0.16
		c-0.3-0.39-0.58-0.78-0.85-1.19c-0.45,0.31-1.09,0.34-1.61,0.31C27.13,53.56,25.97,53.49,24.86,53.36L24.86,53.36z M21.12,47.18
		c0.12,0.25,0.24,0.51,0.36,0.76l4.1,0.02c0.6-0.05,1.27,0.1,1.85,0.39c-2.15-6.69-3.49-15.33,0.75-24.34
		C33.33,13.02,45.72,6.67,57.53,7.21c0.97,0.05,1.46,0.06,2.4,0.16c0.01,0,0.03,0,0.04,0c-0.4-0.17-0.81-0.33-1.23-0.49
		C55.49,5.67,51.97,5,48.3,5C31.86,5,18.53,18.33,18.53,34.77c0,0.58,0.02,1.15,0.05,1.72c0.08,1.66,0.3,3.29,0.64,4.87l0.09-0.01
		l0.06,0l2.59-0.18c1.12-0.24,2.41,0.17,2.99,1.2c0.41,0.73,0.81,1.46,1.16,2.22c0.12,0.27,0.24,0.47,0.31,0.77
		c0.31,1.34-0.93,1.76-2.03,1.81C23.31,47.23,22.21,47.23,21.12,47.18L21.12,47.18z M49.04,63.99c-4.2-0.05-9.71-1.98-14.2-5.44
		c-0.04,0.65-0.76,1.03-1.78,0.94c-0.76-0.07-1.5-0.15-2.25-0.25c4.96,3.7,11.11,5.91,17.78,5.91c9.72,0,18.29-4.69,23.7-11.91
		h-0.01h-0.4C66.54,60.17,58.48,64.1,49.04,63.99L49.04,63.99z"/>
	<path style="fill:#B1126C;" d="M10.21,44.21L9.6,42.82c-0.37-0.86-0.88-1.09-1.91-1.31c-0.45-0.1-0.84-0.2-1.9-0.52
		c-1.15-0.35-0.7,0.65-0.7,0.65s0.16,0.41,0.75,1.67c0.39,0.83,0.76,1.03,1.11,1.22c0.27,0.14,0.83,0.43,2.52,0.91
		C11.25,45.95,10.21,44.21,10.21,44.21L10.21,44.21z"/>
	<path style="fill:#B1126C;" d="M12.17,48.2c-0.54-0.9-1.23-1.04-2.05-1.32c-0.85-0.29-1.81-0.69-1.81-0.69
		c-0.35-0.14-0.76-0.4-1.04-0.17c-0.28,0.23,0.25,1.19,0.8,2.13c0.61,1.05,0.99,1.12,1.55,1.43c0.56,0.32,1.67,0.76,2.94,1.11
		c1.21,0.33,0.66-0.67,0.57-0.84C13.03,49.7,12.71,49.11,12.17,48.2L12.17,48.2z"/>
	<path style="fill:#CF0074;" d="M20.24,52.25c1.05,0.12,0.76-0.66,0.23-1.39c-0.34-0.45-0.84-1.41-1.46-2.04
		c-0.62-0.63-1.91-0.69-3.25-0.84c-1.36-0.16-1.95-0.29-1.95-0.29s-0.6-0.2-0.86,0.08c-0.26,0.28,0.07,0.89,0.07,0.89
		s0.54,0.98,1.11,1.8c0.62,0.86,1.49,0.99,2.23,1.15C17.1,51.77,19.19,52.13,20.24,52.25L20.24,52.25z"/>
	<path style="fill:#9E2886;" d="M24.09,55.96c-0.31-0.4-0.85-1.04-0.85-1.04c-0.72-0.8-2.15-0.97-3.34-1.17
		c-1-0.17-1.49-0.29-2.82-0.57c-1.35-0.29-0.97,0.47-0.56,1.07c0.43,0.63,1.06,1.57,1.87,1.98c0.68,0.35,1.47,0.47,2.45,0.7
		c0.98,0.23,1.66,0.37,3.19,0.63c1.52,0.26,0.73-0.74,0.73-0.74S24.41,56.36,24.09,55.96L24.09,55.96z"/>
	<path style="fill:#E41B53;" d="M24.42,52.73c0,0,1.4,0.21,3.83,0.32c0.67,0.03,1.06-0.07,1.28-0.22c0.58-0.42-0.13-1.27-0.13-1.27
		s-0.36-0.67-1.26-1.91c-0.13-0.17-0.26-0.32-0.41-0.44c-0.93-0.81-2.13-0.69-2.13-0.69l-3.78-0.02h-0.06l-0.41,0
		c-1.08-0.02-0.55,1.01-0.55,1.01s0.53,0.88,1.35,2.05c0.62,0.89,1.93,1.13,2.21,1.17c0.02,0,0.02,0,0.03,0
		C24.4,52.73,24.42,52.73,24.42,52.73L24.42,52.73z"/>
	<path style="fill:#E95130;" d="M24.38,46.62c2.27-0.1,1.4-1.4,1.23-1.79c-0.18-0.39-0.47-0.99-1.13-2.18
		c-0.73-1.3-2.42-0.92-2.42-0.92l-2.63,0.19l-0.07,0l-0.96,0.07c-1.45,0.07-0.9,1.28-0.9,1.28s0.54,1.32,1.13,2.32
		c0.64,1.06,1.87,1,1.87,1s0.14,0.01,0.37,0.02c0.04,0,0.08,0,0.12,0.01C21.64,46.64,22.87,46.69,24.38,46.62L24.38,46.62z"/>
	<path style="fill:#CE2463;" d="M34.02,57.89c-0.03-0.05-0.06-0.08-0.06-0.08s-0.62-0.93-1.54-1.88c-0.36-0.37-0.74-0.59-1.15-0.73
		c-0.63-0.22-1.34-0.25-2.17-0.32c-1.36-0.11-2.58-0.24-3.24-0.29c0,0-0.01,0-0.01,0c-0.1-0.01-0.19-0.02-0.26-0.02
		c-0.54-0.03-1.15,0.23-0.7,0.89c0.13,0.19,1.28,1.64,1.57,1.92c0.83,0.81,1.75,0.96,2.81,1.08c0.21,0.03,0.43,0.05,0.67,0.09
		c0.8,0.11,1.81,0.25,3.18,0.37C34.75,59.07,34.22,58.17,34.02,57.89L34.02,57.89z"/>
	<path style="fill:#EB5D25;" d="M39.54,48.92c-0.92-1.4-2.2-1.36-3.5-1.21c-0.96,0.12-2.62,0.28-4.59,0.43
		c-2.04,0.16-0.94,1.73-0.94,1.73s0.5,1.15,1.49,2.43c1,1.28,3.03,0.94,3.03,0.94s2.89-0.06,4.88-0.25c2.06-0.2,0.82-2.09,0.82-2.09
		L39.54,48.92L39.54,48.92z"/>
	<path style="fill:#EF7D00;" d="M36.05,45.78c1.7-0.34,0.57-2.48,0.57-2.48s-0.68-1.69-1.42-2.83c-0.71-1.1-2.36-0.71-2.36-0.71
		s-1.12,0.2-2.29,0.43c-1.17,0.23-2.13,0.35-2.13,0.35s-1.36,0.02-1.74,0.66c-0.41,0.69-0.11,1.29,0.25,2.16
		c0.35,0.86,1,2.21,1.65,2.69c0.71,0.53,1.19,0.47,2.4,0.39C31.57,46.4,34.34,46.12,36.05,45.78L36.05,45.78z"/>
	<path style="fill:#F59C22;" d="M36.41,35.06c0.78,1.67,3.63,0.57,3.63,0.57s3.66-1.02,5.83-1.87c2.09-0.82,0.94-2.94,0.94-2.94
		s-0.43-1.17-1.38-3.19c-0.88-1.89-3.22-0.97-3.22-0.97s-1.08,0.25-2.86,0.86c-1.64,0.56-3.21,1.03-3.21,1.03
		c-2.02,0.67-1.39,2.56-1.39,2.56S35.51,33.14,36.41,35.06L36.41,35.06z"/>
	<path style="fill:#FFED00;" d="M49.51,42.52c2.79-0.96,1.35-3.13,1.35-3.13s-0.66-1.78-1.57-3.07c-0.97-1.37-2.78-0.82-2.78-0.82
		s-1.86,0.63-3.18,1.03c-1.44,0.44-3.28,0.91-3.28,0.91c-2.77,0.67-1.65,2.74-1.65,2.74s0.59,1.61,1.55,3.33
		c1.02,1.83,3.97,0.63,3.97,0.63S46.72,43.49,49.51,42.52L49.51,42.52z"/>
	<path style="fill:#ED9122;" d="M53.53,50.18c0,0,2.61-0.58,1.52-2.75c-0.87-1.73-1.39-2.62-1.39-2.62s-0.74-1.52-3.19-0.76
		c-2.53,0.79-4.47,1.4-5.47,1.61c-1.69,0.36-3.51,0.89-2.5,2.83l1.38,2.39c0,0,0.78,1.92,3.96,0.97
		C51.14,50.88,53.53,50.18,53.53,50.18L53.53,50.18z"/>
	<path style="fill:#EA5727;" d="M57.58,52.35c-0.85-1.39-2.8-0.78-2.8-0.78s-1.51,0.49-3.25,1.02c-1.81,0.53-3.67,0.97-3.67,0.97
		c-1.92,0.48-1.1,1.98-1.1,1.98s0.46,0.78,1.38,2.13c0.85,1.26,3.2,0.71,3.2,0.71s4.1-1.05,6.33-1.84c1.95-0.68,0.98-2.31,0.98-2.31
		S58.39,53.67,57.58,52.35L57.58,52.35z"/>
	<path style="fill:#87BE41;" d="M53.85,38.83c0.85,1.44,2.52,0.78,3.65,0.22c0.9-0.45,3.6-1.63,5.43-2.67
		c1.84-1.03,0.8-2.73,0.8-2.73s-0.37-0.82-1.27-2.39c-0.91-1.58-2.89-0.69-2.89-0.69s-1.4,0.64-2.92,1.32
		c-1.52,0.69-2.89,1.22-2.89,1.22c-2.52,0.94-1.4,2.86-1.4,2.86S53.04,37.49,53.85,38.83L53.85,38.83z"/>
	<path style="fill:#04A57C;" d="M72.7,24.98c-0.67-1.07-1.92-0.29-1.92-0.29s-1.17,0.77-2.4,1.51C67.07,26.98,66,27.65,66,27.65
		c-1.65,0.73-1.22,2-0.94,2.54c0.27,0.54,0.68,1.4,1.07,2.11c0.35,0.64,0.67,1.04,1.54,1.04c0.87,0,1.8-0.73,1.8-0.73
		s2.53-1.81,3.92-2.86c1.38-1.05,0.49-2.54,0.49-2.54S73.35,26.02,72.7,24.98L72.7,24.98z"/>
	<path style="fill:#1184A7;" d="M74.26,24.6c0,0,0.36,0.75,1.05,2.1c0.6,1.18,1.64,0.52,2,0.23c0.09-0.07,0.14-0.12,0.14-0.12
		s1.55-1.36,2.51-2.22c1.02-0.9,0.21-2.29,0.21-2.29s-0.79-1.62-1.2-2.34c-0.53-0.96-1.09-0.58-1.48-0.2
		c-0.33,0.33-1.12,1-2.21,1.86c-0.18,0.14-0.35,0.28-0.54,0.43C73.42,23.1,74.26,24.6,74.26,24.6L74.26,24.6z"/>
	<path style="fill:#D4D226;" d="M66.13,38.88c-0.76-1.44-2.5-0.48-2.5-0.48s-1.16,0.72-2.9,1.58c-1.74,0.86-2.96,1.36-2.96,1.36
		c-2.12,0.92-1.54,2.31-1.35,2.72c0.2,0.42,0.33,0.86,1.2,2.3c0.88,1.44,2.92,0.56,2.92,0.56s4.78-2.5,5.88-3.2
		c1.1-0.7,1.18-1.86,0.88-2.48C67.09,40.77,66.13,38.88,66.13,38.88L66.13,38.88z"/>
	<path style="fill:#13B1C0;" d="M75.55,39.98c-0.64,0.5-2.44,1.92-3.08,2.37c-0.65,0.44-1.28,1.32-0.88,2.52
		c0.4,1.2,0.74,2.52,1.62,2.66c0.73,0.12,1.26-0.34,1.86-0.78c0,0,0.66-0.53,1.43-1.14c0.76-0.62,1.63-1.32,2.03-1.7
		c0.82-0.76,0.86-1.18,0.86-1.84c0-0.66-0.38-1.56-0.57-2.12c-0.14-0.37-0.32-0.9-0.62-1.19c-0.15-0.14-0.34-0.23-0.56-0.2
		C76.95,38.66,76.19,39.48,75.55,39.98L75.55,39.98z"/>
	<path style="fill:#128790;" d="M81.62,25.97c-0.36-0.56-0.97-0.06-0.97-0.06s-0.77,0.76-1.48,1.4c-0.5,0.47-1.12,1.03-1.43,1.31
		c-0.12,0.11-0.2,0.18-0.2,0.18c-1.03,0.92-0.49,2.1-0.13,3.13c0.3,0.85,0.53,1.26,0.97,1.44c0.09,0.03,0.18,0.07,0.29,0.09
		c0.6,0.08,1.45-0.88,2-1.46c0.43-0.47,0.82-0.9,1.54-1.71c0.72-0.81,0.42-1.76,0.29-2.2C82.37,27.68,81.94,26.47,81.62,25.97
		L81.62,25.97z"/>
	<path style="fill:#1C66B0;" d="M84.85,24.57c-0.17-0.55-0.64-1.88-0.64-1.88c-0.3-0.73-0.74,0-0.74,0l-1.07,1.39
		c-0.34,0.53-0.4,0.89-0.21,1.57c0.1,0.39,0.2,0.57,0.7,1.97c0.51,1.44,1.12,0.2,1.12,0.2s0.55-0.64,0.9-1.28
		C85.26,25.88,85.16,25.56,84.85,24.57L84.85,24.57z"/>
	<path style="fill:#19223D;" d="M117.42,41.42c-0.07-0.22-0.21-0.62-0.65-0.62c-0.16,0-0.33,0.05-0.59,0.14
		c-0.73,0.27-2.17,0.74-3.69,0.74c-2.35,0-3.4-1.36-3.4-4.39c0-1.37,0.32-4.55,3.3-4.55c0.92,0,1.98,0.19,3.19,0.58
		c0.25,0.07,0.44,0.12,0.63,0.12c0.46,0,0.65-0.34,0.75-0.6l0.92-2.52c0.3-0.69,0.19-0.99-0.51-1.31c-1.5-0.73-3.44-1.15-5.34-1.15
		c-5.25,0-8.51,3.62-8.51,9.44c0,6.06,2.84,9.26,8.21,9.26c1.39,0,4.05-0.18,6.25-1.39c0.7-0.4,0.55-0.88,0.36-1.28L117.42,41.42
		L117.42,41.42z"/>
	<path style="fill:#19223D;" d="M139.6,28.09c-1.29,0-3.87,0.16-4.84,0.33c-1.91,0.37-2.28,1.41-2.28,2.96v14.16
		c0,0.79,0.57,0.89,0.99,0.89h3.4c0.65,0,0.99-0.14,0.99-0.89V32.76c0.81-0.12,1.56-0.12,1.95-0.12c2.71,0,3.67,1.04,3.67,4v8.91
		c0,0.79,0.56,0.89,0.99,0.89h3.43c0.65,0,0.98-0.14,0.98-0.89v-8.61C148.87,30.73,146.1,28.09,139.6,28.09L139.6,28.09z"/>
	<path style="fill:#19223D;stroke:#1B3763;stroke-width:0.216;stroke-miterlimit:22.9256;" d="M227.76,28.09
		c-1.3,0-3.88,0.16-4.85,0.33c-1.9,0.37-2.28,1.41-2.28,2.96v14.16c0,0.79,0.56,0.89,0.99,0.89h3.4c0.65,0,0.98-0.14,0.98-0.89
		V32.76c0.81-0.12,1.57-0.12,1.96-0.12c2.7,0,3.66,1.04,3.66,4v8.91c0,0.79,0.57,0.89,0.99,0.89h3.43c0.65,0,0.99-0.14,0.99-0.89
		v-8.61C237.03,30.73,234.25,28.09,227.76,28.09L227.76,28.09z"/>
	<path style="fill:#19223D;" d="M248.93,27.81c-5.24,0-8.5,3.64-8.5,9.49c0,6.32,2.79,9.26,8.79,9.26c1.77,0,4.28-0.4,6.01-1.53
		c0.31-0.18,0.69-0.51,0.41-1.17l-1-2.3c-0.2-0.41-0.47-0.72-1.21-0.38c-0.73,0.3-2.19,0.85-3.69,0.85c-2.35,0-3.85-1.03-3.85-3.18
		h7.39c2.5,0,3.21-0.45,3.21-3.33C256.5,31.27,253.38,27.81,248.93,27.81L248.93,27.81z M246,35.18L246,35.18
		c0.05-1.68,1-3.08,3.03-3.08c1.78,0,2.91,0.92,2.96,3.08H246L246,35.18z"/>
	<path style="fill:#19223D;" d="M160.95,27.81c-5.24,0-8.5,3.64-8.5,9.49c0,6.32,2.79,9.26,8.8,9.26c1.77,0,4.28-0.4,6.01-1.53
		c0.31-0.18,0.69-0.51,0.42-1.17l-1.01-2.3c-0.07-0.16-0.23-0.5-0.64-0.5c-0.13,0-0.29,0.03-0.56,0.12c-0.73,0.3-2.19,0.85-3.7,0.85
		c-2.35,0-3.85-1.03-3.85-3.18h7.39c2.5,0,3.21-0.45,3.21-3.33C168.53,31.27,165.4,27.81,160.95,27.81L160.95,27.81z M158.03,35.18
		L158.03,35.18c0.06-1.68,1-3.08,3.03-3.08c1.78,0,2.91,0.92,2.96,3.08H158.03L158.03,35.18z"/>
	<path style="fill:#19223D;" d="M268.96,28.21l-3.3,0.01v-5.49c0-0.65-0.22-0.93-1.03-0.93h-3.36c-0.4,0-1.01,0-1.01,0.92
		c0,0,0,19.94,0,19.98c0,2.83,1.54,3.73,3.44,3.73c0.72,0,1.51-0.14,1.93-0.44c0-0.65-0.01-13.68-0.01-13.68h3.34
		c0.82,0,0.82-0.52,0.82-0.92v-2.33C269.78,28.77,269.78,28.21,268.96,28.21L268.96,28.21z"/>
	<path style="fill:#19223D;" d="M180.44,27.37c-1.33-0.01-4.73,0.1-7.44,1.3c-0.68,0.36-0.96,0.74-0.97,1.28
		c0,0,0.01,20.03,0.01,20.08c0,2.35,1.54,3.73,3.44,3.73c0.72,0,1.6-0.16,1.98-0.34c0-0.35,0.02-7.82,0.02-7.82
		c1.2,0.25,2.16,0.34,3.44,0.35c4.96,0.03,7.9-3.5,7.93-9.21C188.89,30.64,186.1,27.41,180.44,27.37L180.44,27.37z M179.95,41.23
		L179.95,41.23c-0.82,0-1.62-0.11-2.44-0.32l0.06-8.55c0.68-0.18,1.64-0.28,2.21-0.28c2.57,0.02,3.65,1.37,3.64,4.52
		C183.4,39.73,182.26,41.24,179.95,41.23L179.95,41.23z"/>
	<path style="fill:#19223D;" d="M127.04,22.65h-3.37c-0.42,0-0.99,0.09-0.99,0.89v2.23c0,0.79,0.57,0.89,0.99,0.89h3.37
		c0.65,0,1.02-0.14,1.02-0.89v-2.23C128.06,22.79,127.69,22.65,127.04,22.65L127.04,22.65z"/>
	<path style="fill:#19223D;" d="M128.1,29.4c0-0.56-0.2-0.89-1.02-0.89h-3.36c-0.41,0-1.03,0-1.03,0.92c0,0,0.02,13.21,0.02,13.25
		c0,2.58,1.53,3.73,3.43,3.73c0.72,0,1.51-0.14,1.93-0.44C128.07,45.33,128.1,29.4,128.1,29.4L128.1,29.4z"/>
	<path style="fill:#19223D;" d="M197.61,22.64c0-0.64-0.37-0.89-1.09-0.89h-3.22c-0.41,0-1.1,0-1.1,0.92v12.1h0.01
		c0,0,0,7.87,0,7.91c0,2.58,1.54,3.73,3.44,3.73c0.72,0,1.52-0.14,1.94-0.44C197.59,45.33,197.61,22.64,197.61,22.64L197.61,22.64z"
		/>
	<path style="fill:#19223D;" d="M209.4,27.83c-1.66,0-4.13,0.17-6.47,1.01c-0.52,0.2-0.67,0.55-0.52,1.1l0.53,2.31
		c0.05,0.19,0.17,0.7,0.77,0.7c0.12,0,0.26-0.02,0.42-0.06c1.26-0.34,3.31-0.62,4.58-0.62c2.26,0,2.58,0.98,2.58,2.05v0.66h-3.34
		c-4.54,0-7.25,2.22-7.25,5.77c0,3.85,2.68,5.8,7.98,5.8c1.34,0,4.7-0.12,7.14-1.25c0.78-0.41,0.85-0.97,0.85-1.55v-9.57
		C216.65,29.96,214.21,27.83,209.4,27.83L209.4,27.83z M208.81,42.83L208.81,42.83c-2.31,0-3.01-1.25-3.01-2.02
		c0-1.42,1-2.14,3.14-2.14h2.32v3.82C210.44,42.74,209.26,42.83,208.81,42.83L208.81,42.83z"/>
</g>
</svg>
